<svg width="96" height="96" viewBox="0 0 96 96" fill="none" xmlns="http://www.w3.org/2000/svg">
<path d="M48 0C35.2696 0 23.0606 5.05713 14.0589 14.0589C5.05713 23.0606 0 35.2696 0 48C0 60.7304 5.05713 72.9394 14.0589 81.9411C23.0606 90.9429 35.2696 96 48 96C60.7304 96 72.9394 90.9429 81.9411 81.9411C90.9429 72.9394 96 60.7304 96 48C96 35.2696 90.9429 23.0606 81.9411 14.0589C72.9394 5.05713 60.7304 0 48 0V0Z" fill="#039BE5"/>
<path d="M53.144 58.072H62.978L64.522 48.082H53.142V42.622C53.142 38.472 54.498 34.792 58.38 34.792H64.618V26.074C63.522 25.926 61.204 25.602 56.824 25.602C47.678 25.602 42.316 30.432 42.316 41.436V48.082H32.914V58.072H42.316V85.53C44.178 85.81 46.064 86 48 86C49.75 86 51.458 85.84 53.144 85.612V58.072Z" fill="white"/>
</svg>
