<svg width="1435" height="1023" viewBox="0 0 1435 1023" fill="none" xmlns="http://www.w3.org/2000/svg">
<g clip-path="url(#clip0_471_1372)">
<g opacity="0.5">
<path opacity="0.5" d="M11.1124 261.727C12.9242 261.727 14.3929 260.162 14.3929 258.232C14.3929 256.301 12.9242 254.736 11.1124 254.736C9.30072 254.736 7.83203 256.301 7.83203 258.232C7.83203 260.162 9.30072 261.727 11.1124 261.727Z" fill="white" fill-opacity="0.8"/>
<path opacity="0.5" d="M38.9952 261.727C40.8069 261.727 42.2756 260.162 42.2756 258.232C42.2756 256.301 40.8069 254.736 38.9952 254.736C37.1835 254.736 35.7148 256.301 35.7148 258.232C35.7148 260.162 37.1835 261.727 38.9952 261.727Z" fill="white" fill-opacity="0.8"/>
<path opacity="0.5" d="M66.88 261.727C68.6918 261.727 70.1605 260.162 70.1605 258.232C70.1605 256.301 68.6918 254.736 66.88 254.736C65.0683 254.736 63.5996 256.301 63.5996 258.232C63.5996 260.162 65.0683 261.727 66.88 261.727Z" fill="white" fill-opacity="0.8"/>
<path opacity="0.5" d="M94.7628 261.727C96.5745 261.727 98.0432 260.162 98.0432 258.232C98.0432 256.301 96.5745 254.736 94.7628 254.736C92.9511 254.736 91.4824 256.301 91.4824 258.232C91.4824 260.162 92.9511 261.727 94.7628 261.727Z" fill="white" fill-opacity="0.8"/>
<path opacity="0.5" d="M122.647 261.727C124.459 261.727 125.927 260.162 125.927 258.232C125.927 256.301 124.459 254.736 122.647 254.736C120.835 254.736 119.367 256.301 119.367 258.232C119.367 260.162 120.835 261.727 122.647 261.727Z" fill="white" fill-opacity="0.8"/>
<path opacity="0.5" d="M150.531 261.727C152.342 261.727 153.811 260.162 153.811 258.232C153.811 256.301 152.342 254.736 150.531 254.736C148.719 254.736 147.25 256.301 147.25 258.232C147.25 260.162 148.719 261.727 150.531 261.727Z" fill="white" fill-opacity="0.8"/>
<path opacity="0.5" d="M178.415 261.727C180.227 261.727 181.696 260.162 181.696 258.232C181.696 256.301 180.227 254.736 178.415 254.736C176.603 254.736 175.135 256.301 175.135 258.232C175.135 260.162 176.603 261.727 178.415 261.727Z" fill="white" fill-opacity="0.8"/>
<path opacity="0.5" d="M206.299 261.727C208.111 261.727 209.579 260.162 209.579 258.232C209.579 256.301 208.111 254.736 206.299 254.736C204.487 254.736 203.018 256.301 203.018 258.232C203.018 260.162 204.487 261.727 206.299 261.727Z" fill="white" fill-opacity="0.8"/>
<path opacity="0.5" d="M11.1125 291.441C12.9242 291.441 14.3929 289.876 14.3929 287.945C14.3929 286.014 12.9242 284.449 11.1125 284.449C9.30072 284.449 7.83203 286.014 7.83203 287.945C7.83203 289.876 9.30072 291.441 11.1125 291.441Z" fill="white" fill-opacity="0.8"/>
<path opacity="0.5" d="M38.9952 291.441C40.8069 291.441 42.2756 289.876 42.2756 287.945C42.2756 286.014 40.8069 284.449 38.9952 284.449C37.1835 284.449 35.7148 286.014 35.7148 287.945C35.7148 289.876 37.1835 291.441 38.9952 291.441Z" fill="white" fill-opacity="0.8"/>
<path opacity="0.5" d="M66.88 291.441C68.6918 291.441 70.1605 289.876 70.1605 287.945C70.1605 286.014 68.6918 284.449 66.88 284.449C65.0683 284.449 63.5996 286.014 63.5996 287.945C63.5996 289.876 65.0683 291.441 66.88 291.441Z" fill="white" fill-opacity="0.8"/>
<path opacity="0.5" d="M94.7628 291.441C96.5745 291.441 98.0432 289.876 98.0432 287.945C98.0432 286.014 96.5745 284.449 94.7628 284.449C92.9511 284.449 91.4824 286.014 91.4824 287.945C91.4824 289.876 92.9511 291.441 94.7628 291.441Z" fill="white" fill-opacity="0.8"/>
<path opacity="0.5" d="M122.647 291.441C124.459 291.441 125.927 289.876 125.927 287.945C125.927 286.014 124.459 284.449 122.647 284.449C120.835 284.449 119.367 286.014 119.367 287.945C119.367 289.876 120.835 291.441 122.647 291.441Z" fill="white" fill-opacity="0.8"/>
<path opacity="0.5" d="M150.531 291.441C152.342 291.441 153.811 289.876 153.811 287.945C153.811 286.014 152.342 284.449 150.531 284.449C148.719 284.449 147.25 286.014 147.25 287.945C147.25 289.876 148.719 291.441 150.531 291.441Z" fill="white" fill-opacity="0.8"/>
<path opacity="0.5" d="M178.415 291.441C180.227 291.441 181.696 289.876 181.696 287.945C181.696 286.014 180.227 284.449 178.415 284.449C176.603 284.449 175.135 286.014 175.135 287.945C175.135 289.876 176.603 291.441 178.415 291.441Z" fill="white" fill-opacity="0.8"/>
<path opacity="0.5" d="M206.299 291.441C208.111 291.441 209.579 289.876 209.579 287.945C209.579 286.014 208.111 284.449 206.299 284.449C204.487 284.449 203.018 286.014 203.018 287.945C203.018 289.876 204.487 291.441 206.299 291.441Z" fill="white" fill-opacity="0.8"/>
<path opacity="0.5" d="M11.1125 321.154C12.9242 321.154 14.3929 319.589 14.3929 317.658C14.3929 315.728 12.9242 314.163 11.1125 314.163C9.30072 314.163 7.83203 315.728 7.83203 317.658C7.83203 319.589 9.30072 321.154 11.1125 321.154Z" fill="white" fill-opacity="0.8"/>
<path opacity="0.5" d="M38.9952 321.154C40.8069 321.154 42.2756 319.589 42.2756 317.658C42.2756 315.728 40.8069 314.163 38.9952 314.163C37.1835 314.163 35.7148 315.728 35.7148 317.658C35.7148 319.589 37.1835 321.154 38.9952 321.154Z" fill="white" fill-opacity="0.8"/>
<path opacity="0.5" d="M66.88 321.154C68.6918 321.154 70.1605 319.589 70.1605 317.658C70.1605 315.728 68.6918 314.163 66.88 314.163C65.0683 314.163 63.5996 315.728 63.5996 317.658C63.5996 319.589 65.0683 321.154 66.88 321.154Z" fill="white" fill-opacity="0.8"/>
<path opacity="0.5" d="M94.7628 321.154C96.5745 321.154 98.0432 319.589 98.0432 317.658C98.0432 315.728 96.5745 314.163 94.7628 314.163C92.9511 314.163 91.4824 315.728 91.4824 317.658C91.4824 319.589 92.9511 321.154 94.7628 321.154Z" fill="white" fill-opacity="0.8"/>
<path opacity="0.5" d="M122.647 321.154C124.459 321.154 125.927 319.589 125.927 317.658C125.927 315.728 124.459 314.163 122.647 314.163C120.835 314.163 119.367 315.728 119.367 317.658C119.367 319.589 120.835 321.154 122.647 321.154Z" fill="white" fill-opacity="0.8"/>
<path opacity="0.5" d="M150.531 321.154C152.342 321.154 153.811 319.589 153.811 317.658C153.811 315.728 152.342 314.163 150.531 314.163C148.719 314.163 147.25 315.728 147.25 317.658C147.25 319.589 148.719 321.154 150.531 321.154Z" fill="white" fill-opacity="0.8"/>
<path opacity="0.5" d="M178.415 321.154C180.227 321.154 181.696 319.589 181.696 317.658C181.696 315.728 180.227 314.163 178.415 314.163C176.603 314.163 175.135 315.728 175.135 317.658C175.135 319.589 176.603 321.154 178.415 321.154Z" fill="white" fill-opacity="0.8"/>
<path opacity="0.5" d="M206.299 321.154C208.111 321.154 209.579 319.589 209.579 317.658C209.579 315.728 208.111 314.163 206.299 314.163C204.487 314.163 203.018 315.728 203.018 317.658C203.018 319.589 204.487 321.154 206.299 321.154Z" fill="white" fill-opacity="0.8"/>
<path opacity="0.5" d="M11.1125 351.062C12.9242 351.062 14.3929 349.497 14.3929 347.566C14.3929 345.636 12.9242 344.07 11.1125 344.07C9.30072 344.07 7.83203 345.636 7.83203 347.566C7.83203 349.497 9.30072 351.062 11.1125 351.062Z" fill="white" fill-opacity="0.8"/>
<path opacity="0.5" d="M38.9952 351.062C40.8069 351.062 42.2756 349.497 42.2756 347.566C42.2756 345.636 40.8069 344.07 38.9952 344.07C37.1835 344.07 35.7148 345.636 35.7148 347.566C35.7148 349.497 37.1835 351.062 38.9952 351.062Z" fill="white" fill-opacity="0.8"/>
<path opacity="0.5" d="M66.88 351.062C68.6918 351.062 70.1605 349.497 70.1605 347.566C70.1605 345.636 68.6918 344.07 66.88 344.07C65.0683 344.07 63.5996 345.636 63.5996 347.566C63.5996 349.497 65.0683 351.062 66.88 351.062Z" fill="white" fill-opacity="0.8"/>
<path opacity="0.5" d="M94.7628 351.062C96.5745 351.062 98.0432 349.497 98.0432 347.566C98.0432 345.636 96.5745 344.07 94.7628 344.07C92.9511 344.07 91.4824 345.636 91.4824 347.566C91.4824 349.497 92.9511 351.062 94.7628 351.062Z" fill="white" fill-opacity="0.8"/>
<path opacity="0.5" d="M122.647 351.062C124.459 351.062 125.927 349.497 125.927 347.566C125.927 345.636 124.459 344.07 122.647 344.07C120.835 344.07 119.367 345.636 119.367 347.566C119.367 349.497 120.835 351.062 122.647 351.062Z" fill="white" fill-opacity="0.8"/>
<path opacity="0.5" d="M150.531 351.062C152.342 351.062 153.811 349.497 153.811 347.566C153.811 345.636 152.342 344.07 150.531 344.07C148.719 344.07 147.25 345.636 147.25 347.566C147.25 349.497 148.719 351.062 150.531 351.062Z" fill="white" fill-opacity="0.8"/>
<path opacity="0.5" d="M178.415 351.062C180.227 351.062 181.696 349.497 181.696 347.566C181.696 345.636 180.227 344.07 178.415 344.07C176.603 344.07 175.135 345.636 175.135 347.566C175.135 349.497 176.603 351.062 178.415 351.062Z" fill="white" fill-opacity="0.8"/>
<path opacity="0.5" d="M206.299 351.062C208.111 351.062 209.579 349.497 209.579 347.566C209.579 345.636 208.111 344.07 206.299 344.07C204.487 344.07 203.018 345.636 203.018 347.566C203.018 349.497 204.487 351.062 206.299 351.062Z" fill="white" fill-opacity="0.8"/>
<path opacity="0.5" d="M11.1125 380.775C12.9242 380.775 14.3929 379.21 14.3929 377.28C14.3929 375.349 12.9242 373.784 11.1125 373.784C9.30072 373.784 7.83203 375.349 7.83203 377.28C7.83203 379.21 9.30072 380.775 11.1125 380.775Z" fill="white" fill-opacity="0.8"/>
<path opacity="0.5" d="M38.9952 380.775C40.8069 380.775 42.2756 379.21 42.2756 377.28C42.2756 375.349 40.8069 373.784 38.9952 373.784C37.1835 373.784 35.7148 375.349 35.7148 377.28C35.7148 379.21 37.1835 380.775 38.9952 380.775Z" fill="white" fill-opacity="0.8"/>
<path opacity="0.5" d="M66.88 380.775C68.6918 380.775 70.1605 379.21 70.1605 377.28C70.1605 375.349 68.6918 373.784 66.88 373.784C65.0683 373.784 63.5996 375.349 63.5996 377.28C63.5996 379.21 65.0683 380.775 66.88 380.775Z" fill="white" fill-opacity="0.8"/>
<path opacity="0.5" d="M94.7628 380.775C96.5745 380.775 98.0432 379.21 98.0432 377.28C98.0432 375.349 96.5745 373.784 94.7628 373.784C92.9511 373.784 91.4824 375.349 91.4824 377.28C91.4824 379.21 92.9511 380.775 94.7628 380.775Z" fill="white" fill-opacity="0.8"/>
<path opacity="0.5" d="M122.647 380.775C124.459 380.775 125.927 379.21 125.927 377.28C125.927 375.349 124.459 373.784 122.647 373.784C120.835 373.784 119.367 375.349 119.367 377.28C119.367 379.21 120.835 380.775 122.647 380.775Z" fill="white" fill-opacity="0.8"/>
<path opacity="0.5" d="M150.531 380.775C152.342 380.775 153.811 379.21 153.811 377.28C153.811 375.349 152.342 373.784 150.531 373.784C148.719 373.784 147.25 375.349 147.25 377.28C147.25 379.21 148.719 380.775 150.531 380.775Z" fill="white" fill-opacity="0.8"/>
<path opacity="0.5" d="M178.415 380.775C180.227 380.775 181.696 379.21 181.696 377.28C181.696 375.349 180.227 373.784 178.415 373.784C176.603 373.784 175.135 375.349 175.135 377.28C175.135 379.21 176.603 380.775 178.415 380.775Z" fill="white" fill-opacity="0.8"/>
<path opacity="0.5" d="M206.299 380.775C208.111 380.775 209.579 379.21 209.579 377.28C209.579 375.349 208.111 373.784 206.299 373.784C204.487 373.784 203.018 375.349 203.018 377.28C203.018 379.21 204.487 380.775 206.299 380.775Z" fill="white" fill-opacity="0.8"/>
<path opacity="0.5" d="M11.1125 410.489C12.9242 410.489 14.3929 408.924 14.3929 406.993C14.3929 405.062 12.9242 403.497 11.1125 403.497C9.30072 403.497 7.83203 405.062 7.83203 406.993C7.83203 408.924 9.30072 410.489 11.1125 410.489Z" fill="white" fill-opacity="0.8"/>
<path opacity="0.5" d="M38.9952 410.489C40.8069 410.489 42.2756 408.924 42.2756 406.993C42.2756 405.062 40.8069 403.497 38.9952 403.497C37.1835 403.497 35.7148 405.062 35.7148 406.993C35.7148 408.924 37.1835 410.489 38.9952 410.489Z" fill="white" fill-opacity="0.8"/>
<path opacity="0.5" d="M66.88 410.489C68.6918 410.489 70.1605 408.924 70.1605 406.993C70.1605 405.062 68.6918 403.497 66.88 403.497C65.0683 403.497 63.5996 405.062 63.5996 406.993C63.5996 408.924 65.0683 410.489 66.88 410.489Z" fill="white" fill-opacity="0.8"/>
<path opacity="0.5" d="M94.7628 410.489C96.5745 410.489 98.0432 408.924 98.0432 406.993C98.0432 405.062 96.5745 403.497 94.7628 403.497C92.9511 403.497 91.4824 405.062 91.4824 406.993C91.4824 408.924 92.9511 410.489 94.7628 410.489Z" fill="white" fill-opacity="0.8"/>
<path opacity="0.5" d="M122.647 410.489C124.459 410.489 125.927 408.924 125.927 406.993C125.927 405.062 124.459 403.497 122.647 403.497C120.835 403.497 119.367 405.062 119.367 406.993C119.367 408.924 120.835 410.489 122.647 410.489Z" fill="white" fill-opacity="0.8"/>
<path opacity="0.5" d="M150.531 410.489C152.342 410.489 153.811 408.924 153.811 406.993C153.811 405.062 152.342 403.497 150.531 403.497C148.719 403.497 147.25 405.062 147.25 406.993C147.25 408.924 148.719 410.489 150.531 410.489Z" fill="white" fill-opacity="0.8"/>
<path opacity="0.5" d="M178.415 410.489C180.227 410.489 181.696 408.924 181.696 406.993C181.696 405.062 180.227 403.497 178.415 403.497C176.603 403.497 175.135 405.062 175.135 406.993C175.135 408.924 176.603 410.489 178.415 410.489Z" fill="white" fill-opacity="0.8"/>
<path opacity="0.5" d="M206.299 410.489C208.111 410.489 209.579 408.924 209.579 406.993C209.579 405.062 208.111 403.497 206.299 403.497C204.487 403.497 203.018 405.062 203.018 406.993C203.018 408.924 204.487 410.489 206.299 410.489Z" fill="white" fill-opacity="0.8"/>
</g>
<g opacity="0.5">
<path opacity="0.5" d="M1332.26 639.977C1334.08 639.977 1335.54 638.412 1335.54 636.482C1335.54 634.551 1334.08 632.986 1332.26 632.986C1330.45 632.986 1328.98 634.551 1328.98 636.482C1328.98 638.412 1330.45 639.977 1332.26 639.977Z" fill="white" fill-opacity="0.8"/>
<path opacity="0.5" d="M1332.26 669.691C1334.08 669.691 1335.54 668.126 1335.54 666.195C1335.54 664.264 1334.08 662.699 1332.26 662.699C1330.45 662.699 1328.98 664.264 1328.98 666.195C1328.98 668.126 1330.45 669.691 1332.26 669.691Z" fill="white" fill-opacity="0.8"/>
<path opacity="0.5" d="M1332.26 699.404C1334.08 699.404 1335.54 697.839 1335.54 695.909C1335.54 693.978 1334.08 692.413 1332.26 692.413C1330.45 692.413 1328.98 693.978 1328.98 695.909C1328.98 697.839 1330.45 699.404 1332.26 699.404Z" fill="white" fill-opacity="0.8"/>
<path opacity="0.5" d="M1332.26 729.118C1334.08 729.118 1335.54 727.553 1335.54 725.622C1335.54 723.691 1334.08 722.126 1332.26 722.126C1330.45 722.126 1328.98 723.691 1328.98 725.622C1328.98 727.553 1330.45 729.118 1332.26 729.118Z" fill="white" fill-opacity="0.8"/>
<path opacity="0.5" d="M1332.26 758.831C1334.08 758.831 1335.54 757.266 1335.54 755.335C1335.54 753.405 1334.08 751.84 1332.26 751.84C1330.45 751.84 1328.98 753.405 1328.98 755.335C1328.98 757.266 1330.45 758.831 1332.26 758.831Z" fill="white" fill-opacity="0.8"/>
<path opacity="0.5" d="M1332.26 788.545C1334.08 788.545 1335.54 786.98 1335.54 785.049C1335.54 783.118 1334.08 781.553 1332.26 781.553C1330.45 781.553 1328.98 783.118 1328.98 785.049C1328.98 786.98 1330.45 788.545 1332.26 788.545Z" fill="white" fill-opacity="0.8"/>
<path opacity="0.5" d="M1332.26 818.452C1334.08 818.452 1335.54 816.887 1335.54 814.957C1335.54 813.026 1334.08 811.461 1332.26 811.461C1330.45 811.461 1328.98 813.026 1328.98 814.957C1328.98 816.887 1330.45 818.452 1332.26 818.452Z" fill="white" fill-opacity="0.8"/>
<path opacity="0.5" d="M1332.26 848.166C1334.08 848.166 1335.54 846.601 1335.54 844.67C1335.54 842.739 1334.08 841.174 1332.26 841.174C1330.45 841.174 1328.98 842.739 1328.98 844.67C1328.98 846.601 1330.45 848.166 1332.26 848.166Z" fill="white" fill-opacity="0.8"/>
<path opacity="0.5" d="M1304.38 639.977C1306.19 639.977 1307.66 638.412 1307.66 636.482C1307.66 634.551 1306.19 632.986 1304.38 632.986C1302.57 632.986 1301.1 634.551 1301.1 636.482C1301.1 638.412 1302.57 639.977 1304.38 639.977Z" fill="white" fill-opacity="0.8"/>
<path opacity="0.5" d="M1304.38 669.691C1306.19 669.691 1307.66 668.126 1307.66 666.195C1307.66 664.264 1306.19 662.699 1304.38 662.699C1302.57 662.699 1301.1 664.264 1301.1 666.195C1301.1 668.126 1302.57 669.691 1304.38 669.691Z" fill="white" fill-opacity="0.8"/>
<path opacity="0.5" d="M1304.38 699.404C1306.19 699.404 1307.66 697.839 1307.66 695.909C1307.66 693.978 1306.19 692.413 1304.38 692.413C1302.57 692.413 1301.1 693.978 1301.1 695.909C1301.1 697.839 1302.57 699.404 1304.38 699.404Z" fill="white" fill-opacity="0.8"/>
<path opacity="0.5" d="M1304.38 729.118C1306.19 729.118 1307.66 727.553 1307.66 725.622C1307.66 723.691 1306.19 722.126 1304.38 722.126C1302.57 722.126 1301.1 723.691 1301.1 725.622C1301.1 727.553 1302.57 729.118 1304.38 729.118Z" fill="white" fill-opacity="0.8"/>
<path opacity="0.5" d="M1304.38 758.831C1306.19 758.831 1307.66 757.266 1307.66 755.335C1307.66 753.405 1306.19 751.84 1304.38 751.84C1302.57 751.84 1301.1 753.405 1301.1 755.335C1301.1 757.266 1302.57 758.831 1304.38 758.831Z" fill="white" fill-opacity="0.8"/>
<path opacity="0.5" d="M1304.38 788.545C1306.19 788.545 1307.66 786.98 1307.66 785.049C1307.66 783.118 1306.19 781.553 1304.38 781.553C1302.57 781.553 1301.1 783.118 1301.1 785.049C1301.1 786.98 1302.57 788.545 1304.38 788.545Z" fill="white" fill-opacity="0.8"/>
<path opacity="0.5" d="M1304.38 818.452C1306.19 818.452 1307.66 816.887 1307.66 814.957C1307.66 813.026 1306.19 811.461 1304.38 811.461C1302.57 811.461 1301.1 813.026 1301.1 814.957C1301.1 816.887 1302.57 818.452 1304.38 818.452Z" fill="white" fill-opacity="0.8"/>
<path opacity="0.5" d="M1304.38 848.166C1306.19 848.166 1307.66 846.601 1307.66 844.67C1307.66 842.739 1306.19 841.174 1304.38 841.174C1302.57 841.174 1301.1 842.739 1301.1 844.67C1301.1 846.601 1302.57 848.166 1304.38 848.166Z" fill="white" fill-opacity="0.8"/>
<path opacity="0.5" d="M1276.5 639.977C1278.31 639.977 1279.78 638.412 1279.78 636.482C1279.78 634.551 1278.31 632.986 1276.5 632.986C1274.69 632.986 1273.22 634.551 1273.22 636.482C1273.22 638.412 1274.69 639.977 1276.5 639.977Z" fill="white" fill-opacity="0.8"/>
<path opacity="0.5" d="M1276.5 669.691C1278.31 669.691 1279.78 668.126 1279.78 666.195C1279.78 664.264 1278.31 662.699 1276.5 662.699C1274.69 662.699 1273.22 664.264 1273.22 666.195C1273.22 668.126 1274.69 669.691 1276.5 669.691Z" fill="white" fill-opacity="0.8"/>
<path opacity="0.5" d="M1276.5 699.404C1278.31 699.404 1279.78 697.839 1279.78 695.909C1279.78 693.978 1278.31 692.413 1276.5 692.413C1274.69 692.413 1273.22 693.978 1273.22 695.909C1273.22 697.839 1274.69 699.404 1276.5 699.404Z" fill="white" fill-opacity="0.8"/>
<path opacity="0.5" d="M1276.5 729.118C1278.31 729.118 1279.78 727.553 1279.78 725.622C1279.78 723.691 1278.31 722.126 1276.5 722.126C1274.69 722.126 1273.22 723.691 1273.22 725.622C1273.22 727.553 1274.69 729.118 1276.5 729.118Z" fill="white" fill-opacity="0.8"/>
<path opacity="0.5" d="M1276.5 758.831C1278.31 758.831 1279.78 757.266 1279.78 755.335C1279.78 753.405 1278.31 751.84 1276.5 751.84C1274.69 751.84 1273.22 753.405 1273.22 755.335C1273.22 757.266 1274.69 758.831 1276.5 758.831Z" fill="white" fill-opacity="0.8"/>
<path opacity="0.5" d="M1276.5 788.545C1278.31 788.545 1279.78 786.98 1279.78 785.049C1279.78 783.118 1278.31 781.553 1276.5 781.553C1274.69 781.553 1273.22 783.118 1273.22 785.049C1273.22 786.98 1274.69 788.545 1276.5 788.545Z" fill="white" fill-opacity="0.8"/>
<path opacity="0.5" d="M1276.5 818.452C1278.31 818.452 1279.78 816.887 1279.78 814.957C1279.78 813.026 1278.31 811.461 1276.5 811.461C1274.69 811.461 1273.22 813.026 1273.22 814.957C1273.22 816.887 1274.69 818.452 1276.5 818.452Z" fill="white" fill-opacity="0.8"/>
<path opacity="0.5" d="M1276.5 848.166C1278.31 848.166 1279.78 846.601 1279.78 844.67C1279.78 842.739 1278.31 841.174 1276.5 841.174C1274.69 841.174 1273.22 842.739 1273.22 844.67C1273.22 846.601 1274.69 848.166 1276.5 848.166Z" fill="white" fill-opacity="0.8"/>
<path opacity="0.5" d="M1248.61 639.977C1250.43 639.977 1251.89 638.412 1251.89 636.482C1251.89 634.551 1250.43 632.986 1248.61 632.986C1246.8 632.986 1245.33 634.551 1245.33 636.482C1245.33 638.412 1246.8 639.977 1248.61 639.977Z" fill="white" fill-opacity="0.8"/>
<path opacity="0.5" d="M1248.61 669.691C1250.43 669.691 1251.89 668.126 1251.89 666.195C1251.89 664.264 1250.43 662.699 1248.61 662.699C1246.8 662.699 1245.33 664.264 1245.33 666.195C1245.33 668.126 1246.8 669.691 1248.61 669.691Z" fill="white" fill-opacity="0.8"/>
<path opacity="0.5" d="M1248.61 699.404C1250.43 699.404 1251.89 697.839 1251.89 695.909C1251.89 693.978 1250.43 692.413 1248.61 692.413C1246.8 692.413 1245.33 693.978 1245.33 695.909C1245.33 697.839 1246.8 699.404 1248.61 699.404Z" fill="white" fill-opacity="0.8"/>
<path opacity="0.5" d="M1248.61 729.118C1250.43 729.118 1251.89 727.553 1251.89 725.622C1251.89 723.691 1250.43 722.126 1248.61 722.126C1246.8 722.126 1245.33 723.691 1245.33 725.622C1245.33 727.553 1246.8 729.118 1248.61 729.118Z" fill="white" fill-opacity="0.8"/>
<path opacity="0.5" d="M1248.61 758.831C1250.43 758.831 1251.89 757.266 1251.89 755.335C1251.89 753.405 1250.43 751.84 1248.61 751.84C1246.8 751.84 1245.33 753.405 1245.33 755.335C1245.33 757.266 1246.8 758.831 1248.61 758.831Z" fill="white" fill-opacity="0.8"/>
<path opacity="0.5" d="M1248.61 788.545C1250.43 788.545 1251.89 786.98 1251.89 785.049C1251.89 783.118 1250.43 781.553 1248.61 781.553C1246.8 781.553 1245.33 783.118 1245.33 785.049C1245.33 786.98 1246.8 788.545 1248.61 788.545Z" fill="white" fill-opacity="0.8"/>
<path opacity="0.5" d="M1248.61 818.452C1250.43 818.452 1251.89 816.887 1251.89 814.957C1251.89 813.026 1250.43 811.461 1248.61 811.461C1246.8 811.461 1245.33 813.026 1245.33 814.957C1245.33 816.887 1246.8 818.452 1248.61 818.452Z" fill="white" fill-opacity="0.8"/>
<path opacity="0.5" d="M1248.61 848.166C1250.43 848.166 1251.89 846.601 1251.89 844.67C1251.89 842.739 1250.43 841.174 1248.61 841.174C1246.8 841.174 1245.33 842.739 1245.33 844.67C1245.33 846.601 1246.8 848.166 1248.61 848.166Z" fill="white" fill-opacity="0.8"/>
<path opacity="0.5" d="M1220.73 639.977C1222.54 639.977 1224.01 638.412 1224.01 636.482C1224.01 634.551 1222.54 632.986 1220.73 632.986C1218.92 632.986 1217.45 634.551 1217.45 636.482C1217.45 638.412 1218.92 639.977 1220.73 639.977Z" fill="white" fill-opacity="0.8"/>
<path opacity="0.5" d="M1220.73 669.691C1222.54 669.691 1224.01 668.126 1224.01 666.195C1224.01 664.264 1222.54 662.699 1220.73 662.699C1218.92 662.699 1217.45 664.264 1217.45 666.195C1217.45 668.126 1218.92 669.691 1220.73 669.691Z" fill="white" fill-opacity="0.8"/>
<path opacity="0.5" d="M1220.73 699.404C1222.54 699.404 1224.01 697.839 1224.01 695.909C1224.01 693.978 1222.54 692.413 1220.73 692.413C1218.92 692.413 1217.45 693.978 1217.45 695.909C1217.45 697.839 1218.92 699.404 1220.73 699.404Z" fill="white" fill-opacity="0.8"/>
<path opacity="0.5" d="M1220.73 729.118C1222.54 729.118 1224.01 727.553 1224.01 725.622C1224.01 723.691 1222.54 722.126 1220.73 722.126C1218.92 722.126 1217.45 723.691 1217.45 725.622C1217.45 727.553 1218.92 729.118 1220.73 729.118Z" fill="white" fill-opacity="0.8"/>
<path opacity="0.5" d="M1220.73 758.831C1222.54 758.831 1224.01 757.266 1224.01 755.335C1224.01 753.405 1222.54 751.84 1220.73 751.84C1218.92 751.84 1217.45 753.405 1217.45 755.335C1217.45 757.266 1218.92 758.831 1220.73 758.831Z" fill="white" fill-opacity="0.8"/>
<path opacity="0.5" d="M1220.73 788.545C1222.54 788.545 1224.01 786.98 1224.01 785.049C1224.01 783.118 1222.54 781.553 1220.73 781.553C1218.92 781.553 1217.45 783.118 1217.45 785.049C1217.45 786.98 1218.92 788.545 1220.73 788.545Z" fill="white" fill-opacity="0.8"/>
<path opacity="0.5" d="M1220.73 818.452C1222.54 818.452 1224.01 816.887 1224.01 814.957C1224.01 813.026 1222.54 811.461 1220.73 811.461C1218.92 811.461 1217.45 813.026 1217.45 814.957C1217.45 816.887 1218.92 818.452 1220.73 818.452Z" fill="white" fill-opacity="0.8"/>
<path opacity="0.5" d="M1220.73 848.166C1222.54 848.166 1224.01 846.601 1224.01 844.67C1224.01 842.739 1222.54 841.174 1220.73 841.174C1218.92 841.174 1217.45 842.739 1217.45 844.67C1217.45 846.601 1218.92 848.166 1220.73 848.166Z" fill="white" fill-opacity="0.8"/>
<path opacity="0.5" d="M1192.85 639.977C1194.66 639.977 1196.13 638.412 1196.13 636.482C1196.13 634.551 1194.66 632.986 1192.85 632.986C1191.03 632.986 1189.57 634.551 1189.57 636.482C1189.57 638.412 1191.03 639.977 1192.85 639.977Z" fill="white" fill-opacity="0.8"/>
<path opacity="0.5" d="M1192.85 669.691C1194.66 669.691 1196.13 668.126 1196.13 666.195C1196.13 664.264 1194.66 662.699 1192.85 662.699C1191.03 662.699 1189.57 664.264 1189.57 666.195C1189.57 668.126 1191.03 669.691 1192.85 669.691Z" fill="white" fill-opacity="0.8"/>
<path opacity="0.5" d="M1192.85 699.404C1194.66 699.404 1196.13 697.839 1196.13 695.909C1196.13 693.978 1194.66 692.413 1192.85 692.413C1191.03 692.413 1189.57 693.978 1189.57 695.909C1189.57 697.839 1191.03 699.404 1192.85 699.404Z" fill="white" fill-opacity="0.8"/>
<path opacity="0.5" d="M1192.85 729.118C1194.66 729.118 1196.13 727.553 1196.13 725.622C1196.13 723.691 1194.66 722.126 1192.85 722.126C1191.03 722.126 1189.57 723.691 1189.57 725.622C1189.57 727.553 1191.03 729.118 1192.85 729.118Z" fill="white" fill-opacity="0.8"/>
<path opacity="0.5" d="M1192.85 758.831C1194.66 758.831 1196.13 757.266 1196.13 755.335C1196.13 753.405 1194.66 751.84 1192.85 751.84C1191.03 751.84 1189.57 753.405 1189.57 755.335C1189.57 757.266 1191.03 758.831 1192.85 758.831Z" fill="white" fill-opacity="0.8"/>
<path opacity="0.5" d="M1192.85 788.545C1194.66 788.545 1196.13 786.98 1196.13 785.049C1196.13 783.118 1194.66 781.553 1192.85 781.553C1191.03 781.553 1189.57 783.118 1189.57 785.049C1189.57 786.98 1191.03 788.545 1192.85 788.545Z" fill="white" fill-opacity="0.8"/>
<path opacity="0.5" d="M1192.85 818.452C1194.66 818.452 1196.13 816.887 1196.13 814.957C1196.13 813.026 1194.66 811.461 1192.85 811.461C1191.03 811.461 1189.57 813.026 1189.57 814.957C1189.57 816.887 1191.03 818.452 1192.85 818.452Z" fill="white" fill-opacity="0.8"/>
<path opacity="0.5" d="M1192.85 848.166C1194.66 848.166 1196.13 846.601 1196.13 844.67C1196.13 842.739 1194.66 841.174 1192.85 841.174C1191.03 841.174 1189.57 842.739 1189.57 844.67C1189.57 846.601 1191.03 848.166 1192.85 848.166Z" fill="white" fill-opacity="0.8"/>
</g>
<g opacity="0.5">
<path opacity="0.5" d="M762.876 333.583C764.688 333.583 766.157 332.018 766.157 330.088C766.157 328.157 764.688 326.592 762.876 326.592C761.065 326.592 759.596 328.157 759.596 330.088C759.596 332.018 761.065 333.583 762.876 333.583Z" fill="white" fill-opacity="0.8"/>
<path opacity="0.5" d="M790.76 333.583C792.572 333.583 794.041 332.018 794.041 330.088C794.041 328.157 792.572 326.592 790.76 326.592C788.948 326.592 787.48 328.157 787.48 330.088C787.48 332.018 788.948 333.583 790.76 333.583Z" fill="white" fill-opacity="0.8"/>
<path opacity="0.5" d="M818.644 333.583C820.455 333.583 821.924 332.018 821.924 330.088C821.924 328.157 820.455 326.592 818.644 326.592C816.832 326.592 815.363 328.157 815.363 330.088C815.363 332.018 816.832 333.583 818.644 333.583Z" fill="white" fill-opacity="0.8"/>
<path opacity="0.5" d="M762.877 363.297C764.688 363.297 766.157 361.732 766.157 359.801C766.157 357.87 764.688 356.305 762.877 356.305C761.065 356.305 759.596 357.87 759.596 359.801C759.596 361.732 761.065 363.297 762.877 363.297Z" fill="white" fill-opacity="0.8"/>
<path opacity="0.5" d="M790.76 363.297C792.572 363.297 794.041 361.732 794.041 359.801C794.041 357.87 792.572 356.305 790.76 356.305C788.948 356.305 787.48 357.87 787.48 359.801C787.48 361.732 788.948 363.297 790.76 363.297Z" fill="white" fill-opacity="0.8"/>
<path opacity="0.5" d="M818.644 363.297C820.455 363.297 821.924 361.732 821.924 359.801C821.924 357.87 820.455 356.305 818.644 356.305C816.832 356.305 815.363 357.87 815.363 359.801C815.363 361.732 816.832 363.297 818.644 363.297Z" fill="white" fill-opacity="0.8"/>
<path opacity="0.5" d="M762.877 393.01C764.688 393.01 766.157 391.445 766.157 389.515C766.157 387.584 764.688 386.019 762.877 386.019C761.065 386.019 759.596 387.584 759.596 389.515C759.596 391.445 761.065 393.01 762.877 393.01Z" fill="white" fill-opacity="0.8"/>
<path opacity="0.5" d="M790.76 393.01C792.572 393.01 794.041 391.445 794.041 389.515C794.041 387.584 792.572 386.019 790.76 386.019C788.948 386.019 787.48 387.584 787.48 389.515C787.48 391.445 788.948 393.01 790.76 393.01Z" fill="white" fill-opacity="0.8"/>
<path opacity="0.5" d="M818.644 393.01C820.455 393.01 821.924 391.445 821.924 389.515C821.924 387.584 820.455 386.019 818.644 386.019C816.832 386.019 815.363 387.584 815.363 389.515C815.363 391.445 816.832 393.01 818.644 393.01Z" fill="white" fill-opacity="0.8"/>
</g>
<g opacity="0.5">
<path opacity="0.5" d="M502.446 597.509C504.258 597.509 505.727 595.944 505.727 594.013C505.727 592.083 504.258 590.518 502.446 590.518C500.634 590.518 499.166 592.083 499.166 594.013C499.166 595.944 500.634 597.509 502.446 597.509Z" fill="white" fill-opacity="0.8"/>
<path opacity="0.5" d="M530.33 597.509C532.141 597.509 533.61 595.944 533.61 594.013C533.61 592.083 532.141 590.517 530.33 590.517C528.518 590.517 527.049 592.083 527.049 594.013C527.049 595.944 528.518 597.509 530.33 597.509Z" fill="white" fill-opacity="0.8"/>
<path opacity="0.5" d="M558.214 597.509C560.026 597.509 561.495 595.944 561.495 594.013C561.495 592.083 560.026 590.517 558.214 590.517C556.403 590.517 554.934 592.083 554.934 594.013C554.934 595.944 556.403 597.509 558.214 597.509Z" fill="white" fill-opacity="0.8"/>
<path opacity="0.5" d="M502.446 627.417C504.258 627.417 505.727 625.852 505.727 623.921C505.727 621.99 504.258 620.425 502.446 620.425C500.634 620.425 499.166 621.99 499.166 623.921C499.166 625.852 500.634 627.417 502.446 627.417Z" fill="white" fill-opacity="0.8"/>
<path opacity="0.5" d="M530.33 627.417C532.142 627.417 533.61 625.852 533.61 623.921C533.61 621.99 532.142 620.425 530.33 620.425C528.518 620.425 527.049 621.99 527.049 623.921C527.049 625.852 528.518 627.417 530.33 627.417Z" fill="white" fill-opacity="0.8"/>
<path opacity="0.5" d="M558.214 627.417C560.026 627.417 561.495 625.852 561.495 623.921C561.495 621.99 560.026 620.425 558.214 620.425C556.403 620.425 554.934 621.99 554.934 623.921C554.934 625.852 556.403 627.417 558.214 627.417Z" fill="white" fill-opacity="0.8"/>
<path opacity="0.5" d="M502.446 657.13C504.258 657.13 505.727 655.565 505.727 653.634C505.727 651.704 504.258 650.139 502.446 650.139C500.634 650.139 499.166 651.704 499.166 653.634C499.166 655.565 500.634 657.13 502.446 657.13Z" fill="white" fill-opacity="0.8"/>
<path opacity="0.5" d="M530.33 657.13C532.142 657.13 533.61 655.565 533.61 653.634C533.61 651.704 532.142 650.139 530.33 650.139C528.518 650.139 527.049 651.704 527.049 653.634C527.049 655.565 528.518 657.13 530.33 657.13Z" fill="white" fill-opacity="0.8"/>
<path opacity="0.5" d="M558.214 657.13C560.026 657.13 561.495 655.565 561.495 653.634C561.495 651.704 560.026 650.139 558.214 650.139C556.403 650.139 554.934 651.704 554.934 653.634C554.934 655.565 556.403 657.13 558.214 657.13Z" fill="white" fill-opacity="0.8"/>
</g>
<g opacity="0.79">
<path opacity="0.79" d="M781.465 850.947C874.265 850.947 949.495 770.781 949.495 671.89C949.495 572.999 874.265 492.832 781.465 492.832C688.664 492.832 613.434 572.999 613.434 671.89C613.434 770.781 688.664 850.947 781.465 850.947Z" stroke="white" stroke-opacity="0.2" stroke-width="0.5" stroke-miterlimit="10"/>
<path opacity="0.79" d="M781.463 838.324C867.722 838.324 937.648 763.809 937.648 671.89C937.648 579.971 867.722 505.455 781.463 505.455C695.205 505.455 625.279 579.971 625.279 671.89C625.279 763.809 695.205 838.324 781.463 838.324Z" stroke="white" stroke-opacity="0.2" stroke-width="0.7273" stroke-miterlimit="10"/>
<path opacity="0.79" d="M781.463 825.701C861.179 825.701 925.802 756.837 925.802 671.89C925.802 586.942 861.179 518.079 781.463 518.079C701.747 518.079 637.125 586.942 637.125 671.89C637.125 756.837 701.747 825.701 781.463 825.701Z" stroke="white" stroke-opacity="0.2" stroke-width="0.9545" stroke-miterlimit="10"/>
<path opacity="0.79" d="M781.464 813.077C854.637 813.077 913.956 749.865 913.956 671.89C913.956 593.914 854.637 530.702 781.464 530.702C708.29 530.702 648.971 593.914 648.971 671.89C648.971 749.865 708.29 813.077 781.464 813.077Z" stroke="white" stroke-opacity="0.2" stroke-width="1.1818" stroke-miterlimit="10"/>
<path opacity="0.79" d="M781.465 800.454C848.096 800.454 902.111 742.894 902.111 671.89C902.111 600.886 848.096 543.326 781.465 543.326C714.833 543.326 660.818 600.886 660.818 671.89C660.818 742.894 714.833 800.454 781.465 800.454Z" stroke="white" stroke-opacity="0.2" stroke-width="1.4091" stroke-miterlimit="10"/>
<path opacity="0.79" d="M781.465 787.831C841.554 787.831 890.265 735.922 890.265 671.89C890.265 607.857 841.554 555.949 781.465 555.949C721.376 555.949 672.664 607.857 672.664 671.89C672.664 735.922 721.376 787.831 781.465 787.831Z" stroke="white" stroke-opacity="0.2" stroke-width="1.6364" stroke-miterlimit="10"/>
<path opacity="0.79" d="M781.465 775.207C835.011 775.207 878.419 728.95 878.419 671.89C878.419 614.829 835.011 568.572 781.465 568.572C727.918 568.572 684.51 614.829 684.51 671.89C684.51 728.95 727.918 775.207 781.465 775.207Z" stroke="white" stroke-opacity="0.2" stroke-width="1.8636" stroke-miterlimit="10"/>
<path opacity="0.79" d="M781.464 762.584C828.468 762.584 866.572 721.979 866.572 671.89C866.572 621.801 828.468 581.196 781.464 581.196C734.459 581.196 696.355 621.801 696.355 671.89C696.355 721.979 734.459 762.584 781.464 762.584Z" stroke="white" stroke-opacity="0.2" stroke-width="2.0909" stroke-miterlimit="10"/>
<path opacity="0.79" d="M781.464 749.96C821.925 749.96 854.726 715.007 854.726 671.89C854.726 628.772 821.925 593.819 781.464 593.819C741.002 593.819 708.201 628.772 708.201 671.89C708.201 715.007 741.002 749.96 781.464 749.96Z" stroke="white" stroke-opacity="0.2" stroke-width="2.3182" stroke-miterlimit="10"/>
<path opacity="0.79" d="M781.463 737.337C815.383 737.337 842.88 708.035 842.88 671.89C842.88 635.744 815.383 606.442 781.463 606.442C747.544 606.442 720.047 635.744 720.047 671.89C720.047 708.035 747.544 737.337 781.463 737.337Z" stroke="white" stroke-opacity="0.2" stroke-width="2.5454" stroke-miterlimit="10"/>
<path opacity="0.79" d="M781.465 724.714C808.843 724.714 831.036 701.064 831.036 671.89C831.036 642.716 808.843 619.066 781.465 619.066C754.088 619.066 731.895 642.716 731.895 671.89C731.895 701.064 754.088 724.714 781.465 724.714Z" stroke="white" stroke-opacity="0.2" stroke-width="2.7727" stroke-miterlimit="10"/>
<path opacity="0.79" d="M781.465 712.09C802.299 712.09 819.189 694.092 819.189 671.89C819.189 649.688 802.299 631.689 781.465 631.689C760.63 631.689 743.74 649.688 743.74 671.89C743.74 694.092 760.63 712.09 781.465 712.09Z" stroke="white" stroke-opacity="0.2" stroke-width="3" stroke-miterlimit="10"/>
</g>
<g opacity="0.89">
<g opacity="0.89">
<path opacity="0.89" d="M291.04 749.572C372.467 749.572 438.478 679.23 438.478 592.46C438.478 505.689 372.467 435.347 291.04 435.347C209.613 435.347 143.604 505.689 143.604 592.46C143.604 679.23 209.613 749.572 291.04 749.572Z" stroke="white" stroke-opacity="0.2" stroke-width="0.8127" stroke-linecap="round" stroke-linejoin="round"/>
</g>
<g opacity="0.89">
<path opacity="0.89" d="M291.041 738.114C366.53 738.114 427.725 672.902 427.725 592.46C427.725 512.017 366.53 446.805 291.041 446.805C215.552 446.805 154.357 512.017 154.357 592.46C154.357 672.902 215.552 738.114 291.041 738.114Z" stroke="white" stroke-opacity="0.2" stroke-width="0.9493" stroke-linecap="round" stroke-linejoin="round"/>
</g>
<g opacity="0.89">
<path opacity="0.89" d="M291.041 726.656C360.591 726.656 416.973 666.574 416.973 592.46C416.973 518.345 360.591 458.263 291.041 458.263C221.491 458.263 165.109 518.345 165.109 592.46C165.109 666.574 221.491 726.656 291.041 726.656Z" stroke="white" stroke-opacity="0.2" stroke-width="1.0859" stroke-linecap="round" stroke-linejoin="round"/>
</g>
<g opacity="0.89">
<path opacity="0.89" d="M291.04 715.198C354.652 715.198 406.219 660.246 406.219 592.46C406.219 524.673 354.652 469.722 291.04 469.722C227.428 469.722 175.861 524.673 175.861 592.46C175.861 660.246 227.428 715.198 291.04 715.198Z" stroke="white" stroke-opacity="0.2" stroke-width="1.2225" stroke-linecap="round" stroke-linejoin="round"/>
</g>
<g opacity="0.89">
<path opacity="0.89" d="M291.04 703.739C348.713 703.739 395.467 653.918 395.467 592.46C395.467 531.001 348.713 481.18 291.04 481.18C233.367 481.18 186.613 531.001 186.613 592.46C186.613 653.918 233.367 703.739 291.04 703.739Z" stroke="white" stroke-opacity="0.2" stroke-width="1.3591" stroke-linecap="round" stroke-linejoin="round"/>
</g>
<g opacity="0.89">
<path opacity="0.89" d="M291.041 692.281C342.776 692.281 384.715 647.59 384.715 592.46C384.715 537.33 342.776 492.638 291.041 492.638C239.306 492.638 197.367 537.33 197.367 592.46C197.367 647.59 239.306 692.281 291.041 692.281Z" stroke="white" stroke-opacity="0.2" stroke-width="1.4956" stroke-linecap="round" stroke-linejoin="round"/>
</g>
<g opacity="0.89">
<path opacity="0.89" d="M291.041 680.823C336.837 680.823 373.963 641.261 373.963 592.46C373.963 543.658 336.837 504.096 291.041 504.096C245.245 504.096 208.119 543.658 208.119 592.46C208.119 641.261 245.245 680.823 291.041 680.823Z" stroke="white" stroke-opacity="0.2" stroke-width="1.6322" stroke-linecap="round" stroke-linejoin="round"/>
</g>
<g opacity="0.89">
<path opacity="0.89" d="M291.04 669.365C330.898 669.365 363.209 634.933 363.209 592.46C363.209 549.986 330.898 515.554 291.04 515.554C251.182 515.554 218.871 549.986 218.871 592.46C218.871 634.933 251.182 669.365 291.04 669.365Z" stroke="white" stroke-opacity="0.2" stroke-width="1.7688" stroke-linecap="round" stroke-linejoin="round"/>
</g>
<g opacity="0.89">
<path opacity="0.89" d="M291.04 657.907C324.96 657.907 352.457 628.605 352.457 592.46C352.457 556.314 324.96 527.012 291.04 527.012C257.12 527.012 229.623 556.314 229.623 592.46C229.623 628.605 257.12 657.907 291.04 657.907Z" stroke="white" stroke-opacity="0.2" stroke-width="1.9054" stroke-linecap="round" stroke-linejoin="round"/>
</g>
<g opacity="0.89">
<path opacity="0.89" d="M291.041 646.449C319.022 646.449 341.705 622.277 341.705 592.46C341.705 562.642 319.022 538.47 291.041 538.47C263.06 538.47 240.377 562.642 240.377 592.46C240.377 622.277 263.06 646.449 291.041 646.449Z" stroke="white" stroke-opacity="0.2" stroke-width="2.042" stroke-linecap="round" stroke-linejoin="round"/>
</g>
<g opacity="0.89">
<path opacity="0.89" d="M291.041 634.991C313.084 634.991 330.953 615.949 330.953 592.46C330.953 568.97 313.084 549.928 291.041 549.928C268.998 549.928 251.129 568.97 251.129 592.46C251.129 615.949 268.998 634.991 291.041 634.991Z" stroke="white" stroke-opacity="0.2" stroke-width="2.1786" stroke-linecap="round" stroke-linejoin="round"/>
</g>
<g opacity="0.89">
<path opacity="0.89" d="M291.04 623.532C307.144 623.532 320.199 609.621 320.199 592.46C320.199 575.298 307.144 561.387 291.04 561.387C274.936 561.387 261.881 575.298 261.881 592.46C261.881 609.621 274.936 623.532 291.04 623.532Z" stroke="white" stroke-opacity="0.2" stroke-width="2.3152" stroke-linecap="round" stroke-linejoin="round"/>
</g>
</g>
<g opacity="0.49">
<path opacity="0.49" d="M262.428 389.126C266.554 389.126 269.9 385.561 269.9 381.164C269.9 376.766 266.554 373.201 262.428 373.201C258.301 373.201 254.955 376.766 254.955 381.164C254.955 385.561 258.301 389.126 262.428 389.126Z" stroke="white" stroke-opacity="0.8" stroke-width="2" stroke-miterlimit="10" stroke-linecap="round" stroke-linejoin="round"/>
<path opacity="0.49" d="M763.786 927.076C767.912 927.076 771.258 923.511 771.258 919.113C771.258 914.716 767.912 911.151 763.786 911.151C759.659 911.151 756.314 914.716 756.314 919.113C756.314 923.511 759.659 927.076 763.786 927.076Z" stroke="white" stroke-opacity="0.8" stroke-width="2" stroke-miterlimit="10" stroke-linecap="round" stroke-linejoin="round"/>
<path opacity="0.49" d="M531.242 535.751C535.369 535.751 538.714 532.187 538.714 527.789C538.714 523.392 535.369 519.827 531.242 519.827C527.115 519.827 523.77 523.392 523.77 527.789C523.77 532.187 527.115 535.751 531.242 535.751Z" stroke="white" stroke-opacity="0.8" stroke-width="2" stroke-miterlimit="10" stroke-linecap="round" stroke-linejoin="round"/>
<path opacity="0.49" d="M8.55997 793.851C12.6867 793.851 16.0321 790.286 16.0321 785.888C16.0321 781.491 12.6867 777.926 8.55997 777.926C4.43326 777.926 1.08789 781.491 1.08789 785.888C1.08789 790.286 4.43326 793.851 8.55997 793.851Z" stroke="white" stroke-opacity="0.8" stroke-width="2" stroke-miterlimit="10" stroke-linecap="round" stroke-linejoin="round"/>
<path opacity="0.49" d="M83.8276 561.581C87.9543 561.581 91.2997 558.016 91.2997 553.618C91.2997 549.221 87.9543 545.656 83.8276 545.656C79.7009 545.656 76.3555 549.221 76.3555 553.618C76.3555 558.016 79.7009 561.581 83.8276 561.581Z" stroke="white" stroke-opacity="0.8" stroke-width="2" stroke-miterlimit="10" stroke-linecap="round" stroke-linejoin="round"/>
<g opacity="0.49">
<path opacity="0.49" d="M677.402 449.136V462.924" stroke="white" stroke-opacity="0.8" stroke-width="2" stroke-miterlimit="10" stroke-linecap="round" stroke-linejoin="round"/>
<path opacity="0.49" d="M683.962 455.933H671.023" stroke="white" stroke-opacity="0.8" stroke-width="2" stroke-miterlimit="10" stroke-linecap="round" stroke-linejoin="round"/>
</g>
<g opacity="0.49">
<path opacity="0.49" d="M1224.32 912.316V926.105" stroke="white" stroke-opacity="0.8" stroke-width="2" stroke-miterlimit="10" stroke-linecap="round" stroke-linejoin="round"/>
<path opacity="0.49" d="M1230.7 919.114H1217.76" stroke="white" stroke-opacity="0.8" stroke-width="2" stroke-miterlimit="10" stroke-linecap="round" stroke-linejoin="round"/>
</g>
<g opacity="0.49">
<path opacity="0.49" d="M307.078 786.859V800.648" stroke="white" stroke-opacity="0.8" stroke-width="2" stroke-miterlimit="10" stroke-linecap="round" stroke-linejoin="round"/>
<path opacity="0.49" d="M313.457 793.657H300.518" stroke="white" stroke-opacity="0.8" stroke-width="2" stroke-miterlimit="10" stroke-linecap="round" stroke-linejoin="round"/>
</g>
<g opacity="0.49">
<g opacity="0.49">
<path opacity="0.49" d="M91.3008 458.458V472.246" stroke="white" stroke-opacity="0.8" stroke-width="2" stroke-miterlimit="10" stroke-linecap="round" stroke-linejoin="round"/>
<path opacity="0.49" d="M97.8619 465.255H84.7402" stroke="white" stroke-opacity="0.8" stroke-width="2" stroke-miterlimit="10" stroke-linecap="round" stroke-linejoin="round"/>
</g>
<g opacity="0.49">
<path opacity="0.49" d="M51.9355 458.458V472.246" stroke="white" stroke-opacity="0.8" stroke-width="2" stroke-miterlimit="10" stroke-linecap="round" stroke-linejoin="round"/>
<path opacity="0.49" d="M58.4961 465.255H45.5566" stroke="white" stroke-opacity="0.8" stroke-width="2" stroke-miterlimit="10" stroke-linecap="round" stroke-linejoin="round"/>
</g>
<g opacity="0.49">
<path opacity="0.49" d="M12.752 458.458V472.246" stroke="white" stroke-opacity="0.8" stroke-width="2" stroke-miterlimit="10" stroke-linecap="round" stroke-linejoin="round"/>
<path opacity="0.49" d="M19.3131 465.255H6.19141" stroke="white" stroke-opacity="0.8" stroke-width="2" stroke-miterlimit="10" stroke-linecap="round" stroke-linejoin="round"/>
</g>
</g>
<path opacity="0.49" d="M461.622 746.853L471.646 728.015H451.416L461.622 746.853Z" stroke="white" stroke-opacity="0.8" stroke-width="2" stroke-miterlimit="10" stroke-linecap="round" stroke-linejoin="round"/>
<path opacity="0.49" d="M945.304 462.924L935.098 481.568H955.327L945.304 462.924Z" stroke="white" stroke-opacity="0.8" stroke-width="2" stroke-miterlimit="10" stroke-linecap="round" stroke-linejoin="round"/>
<path opacity="0.49" d="M445.949 1029.42C450.323 1024.76 458.16 1032.92 462.533 1028.26C466.907 1023.6 459.253 1015.25 463.627 1010.58C468.001 1005.92 475.837 1014.08 480.211 1009.42C484.585 1004.76 476.931 996.407 481.305 991.746C485.679 987.085 493.515 995.242 497.889 990.581C502.263 985.92 494.609 977.569 498.983 972.908C503.357 968.247 511.193 976.404 515.567 971.743" stroke="white" stroke-opacity="0.8" stroke-width="2" stroke-miterlimit="10" stroke-linecap="round" stroke-linejoin="round"/>
<path opacity="0.49" d="M829.941 991.164C834.315 986.503 842.151 994.659 846.525 989.999C850.899 985.338 843.245 976.987 847.619 972.326C851.993 967.665 859.829 975.821 864.203 971.161C868.577 966.5 860.923 958.149 865.297 953.488C869.67 948.827 877.507 956.984 881.881 952.323C886.255 947.662 878.6 939.311 882.974 934.65C887.348 929.989 895.185 938.146 899.559 933.485" stroke="white" stroke-opacity="0.8" stroke-width="2" stroke-miterlimit="10" stroke-linecap="round" stroke-linejoin="round"/>
<path opacity="0.49" d="M851.812 458.069C856.186 453.408 864.022 461.565 868.396 456.904C872.77 452.243 865.116 443.892 869.49 439.231C873.864 434.57 881.7 442.727 886.074 438.066C890.448 433.405 882.793 425.054 887.167 420.393C891.541 415.732 899.379 423.889 903.753 419.228C908.126 414.567 900.471 406.216 904.845 401.555C909.219 396.894 917.057 405.051 921.43 400.39" stroke="white" stroke-opacity="0.8" stroke-width="2" stroke-miterlimit="10" stroke-linecap="round" stroke-linejoin="round"/>
</g>
<g opacity="0.5">
<path opacity="0.5" d="M1027.86 68.5063L910.312 193.769" stroke="white" stroke-opacity="0.8" stroke-width="2.1221" stroke-miterlimit="10"/>
<path opacity="0.5" d="M1020.21 60.3496L902.658 185.612" stroke="white" stroke-opacity="0.8" stroke-width="2.1221" stroke-miterlimit="10"/>
<path opacity="0.5" d="M1012.55 52.193L895.004 177.456" stroke="white" stroke-opacity="0.8" stroke-width="2.1221" stroke-miterlimit="10"/>
<path opacity="0.5" d="M1004.9 44.0365L887.35 169.299" stroke="white" stroke-opacity="0.8" stroke-width="2.1221" stroke-miterlimit="10"/>
<path opacity="0.5" d="M997.244 35.8798L879.695 161.142" stroke="white" stroke-opacity="0.8" stroke-width="2.1221" stroke-miterlimit="10"/>
<path opacity="0.5" d="M989.589 27.7231L872.223 152.986" stroke="white" stroke-opacity="0.8" stroke-width="2.1221" stroke-miterlimit="10"/>
<path opacity="0.5" d="M981.934 19.5664L864.568 144.829" stroke="white" stroke-opacity="0.8" stroke-width="2.1221" stroke-miterlimit="10"/>
<path opacity="0.5" d="M974.463 11.6041L856.914 136.673" stroke="white" stroke-opacity="0.8" stroke-width="2.1221" stroke-miterlimit="10"/>
<path opacity="0.5" d="M966.808 3.4474L849.26 128.516" stroke="white" stroke-opacity="0.8" stroke-width="2.1221" stroke-miterlimit="10"/>
<path opacity="0.5" d="M959.153 -4.70929L841.605 120.553" stroke="white" stroke-opacity="0.8" stroke-width="2.1221" stroke-miterlimit="10"/>
<path opacity="0.5" d="M951.5 -12.8658L833.951 112.397" stroke="white" stroke-opacity="0.8" stroke-width="2.1221" stroke-miterlimit="10"/>
<path opacity="0.5" d="M943.845 -21.023L826.297 104.24" stroke="white" stroke-opacity="0.8" stroke-width="2.1221" stroke-miterlimit="10"/>
<path opacity="0.5" d="M936.191 -29.179L818.643 96.0835" stroke="white" stroke-opacity="0.8" stroke-width="2.1221" stroke-miterlimit="10"/>
<path opacity="0.5" d="M928.537 -37.336L810.988 87.9269" stroke="white" stroke-opacity="0.8" stroke-width="2.1221" stroke-miterlimit="10"/>
</g>
<g opacity="0.8">
<path opacity="0.8" d="M496.069 304.66C637.987 304.66 753.035 182.063 753.035 30.8305C753.035 -120.402 637.987 -243 496.069 -243C354.15 -243 239.102 -120.402 239.102 30.8305C239.102 182.063 354.15 304.66 496.069 304.66Z" stroke="white" stroke-opacity="0.2" stroke-width="0.5" stroke-miterlimit="10"/>
<path opacity="0.8" d="M496.069 290.872C630.841 290.872 740.096 174.447 740.096 30.8304C740.096 -112.786 630.841 -229.211 496.069 -229.211C361.296 -229.211 252.041 -112.786 252.041 30.8304C252.041 174.447 361.296 290.872 496.069 290.872Z" stroke="white" stroke-opacity="0.2" stroke-width="0.6563" stroke-miterlimit="10"/>
<path opacity="0.8" d="M496.067 277.083C623.694 277.083 727.155 166.832 727.155 30.8305C727.155 -105.171 623.694 -215.422 496.067 -215.422C368.441 -215.422 264.98 -105.171 264.98 30.8305C264.98 166.832 368.441 277.083 496.067 277.083Z" stroke="white" stroke-opacity="0.2" stroke-width="0.8125" stroke-miterlimit="10"/>
<path opacity="0.8" d="M496.069 263.295C616.548 263.295 714.217 159.217 714.217 30.8305C714.217 -97.556 616.548 -201.634 496.069 -201.634C375.589 -201.634 277.92 -97.556 277.92 30.8305C277.92 159.217 375.589 263.295 496.069 263.295Z" stroke="white" stroke-opacity="0.2" stroke-width="0.9688" stroke-miterlimit="10"/>
<path opacity="0.8" d="M496.068 249.506C609.401 249.506 701.276 151.602 701.276 30.8305C701.276 -89.941 609.401 -187.845 496.068 -187.845C382.734 -187.845 290.859 -89.941 290.859 30.8305C290.859 151.602 382.734 249.506 496.068 249.506Z" stroke="white" stroke-opacity="0.2" stroke-width="1.125" stroke-miterlimit="10"/>
<path opacity="0.8" d="M496.069 235.717C602.256 235.717 688.338 143.986 688.338 30.8304C688.338 -82.326 602.256 -174.057 496.069 -174.057C389.881 -174.057 303.799 -82.326 303.799 30.8304C303.799 143.986 389.881 235.717 496.069 235.717Z" stroke="white" stroke-opacity="0.2" stroke-width="1.2813" stroke-miterlimit="10"/>
<path opacity="0.8" d="M496.068 221.735C595.008 221.735 675.215 136.264 675.215 30.8304C675.215 -74.603 595.008 -160.074 496.068 -160.074C397.127 -160.074 316.92 -74.603 316.92 30.8304C316.92 136.264 397.127 221.735 496.068 221.735Z" stroke="white" stroke-opacity="0.2" stroke-width="1.4375" stroke-miterlimit="10"/>
<path opacity="0.8" d="M496.068 207.946C587.862 207.946 662.276 128.649 662.276 30.8304C662.276 -66.988 587.862 -146.285 496.068 -146.285C404.273 -146.285 329.859 -66.988 329.859 30.8304C329.859 128.649 404.273 207.946 496.068 207.946Z" stroke="white" stroke-opacity="0.2" stroke-width="1.5938" stroke-miterlimit="10"/>
<path opacity="0.8" d="M496.068 194.157C580.716 194.157 649.336 121.034 649.336 30.8305C649.336 -59.373 580.716 -132.497 496.068 -132.497C411.42 -132.497 342.799 -59.373 342.799 30.8305C342.799 121.034 411.42 194.157 496.068 194.157Z" stroke="white" stroke-opacity="0.2" stroke-width="1.75" stroke-miterlimit="10"/>
<path opacity="0.8" d="M496.068 180.369C573.569 180.369 636.397 113.418 636.397 30.8304C636.397 -51.757 573.569 -118.708 496.068 -118.708C418.566 -118.708 355.738 -51.757 355.738 30.8304C355.738 113.418 418.566 180.369 496.068 180.369Z" stroke="white" stroke-opacity="0.2" stroke-width="1.9063" stroke-miterlimit="10"/>
<path opacity="0.8" d="M496.068 166.58C566.423 166.58 623.457 105.803 623.457 30.8304C623.457 -44.142 566.423 -104.919 496.068 -104.919C425.712 -104.919 368.678 -44.142 368.678 30.8304C368.678 105.803 425.712 166.58 496.068 166.58Z" stroke="white" stroke-opacity="0.2" stroke-width="2.0625" stroke-miterlimit="10"/>
<path opacity="0.8" d="M496.067 152.792C559.277 152.792 610.518 98.1878 610.518 30.8305C610.518 -36.527 559.277 -91.131 496.067 -91.131C432.858 -91.131 381.617 -36.527 381.617 30.8305C381.617 98.1878 432.858 152.792 496.067 152.792Z" stroke="white" stroke-opacity="0.2" stroke-width="2.2188" stroke-miterlimit="10"/>
<path opacity="0.8" d="M496.068 139.003C552.131 139.003 597.579 90.5725 597.579 30.8304C597.579 -28.912 552.131 -77.342 496.068 -77.342C440.005 -77.342 394.557 -28.912 394.557 30.8304C394.557 90.5725 440.005 139.003 496.068 139.003Z" stroke="white" stroke-opacity="0.2" stroke-width="2.375" stroke-miterlimit="10"/>
<path opacity="0.8" d="M496.068 125.214C544.984 125.214 584.639 82.9573 584.639 30.8304C584.639 -21.296 544.984 -63.554 496.068 -63.554C447.151 -63.554 407.496 -21.296 407.496 30.8304C407.496 82.9573 447.151 125.214 496.068 125.214Z" stroke="white" stroke-opacity="0.2" stroke-width="2.5313" stroke-miterlimit="10"/>
<path opacity="0.8" d="M496.069 111.426C537.839 111.426 571.702 75.342 571.702 30.8304C571.702 -13.6812 537.839 -49.765 496.069 -49.765C454.298 -49.765 420.438 -13.6812 420.438 30.8304C420.438 75.342 454.298 111.426 496.069 111.426Z" stroke="white" stroke-opacity="0.2" stroke-width="2.6875" stroke-miterlimit="10"/>
<path opacity="0.8" d="M496.068 97.6371C530.692 97.6371 558.76 67.7267 558.76 30.8304C558.76 -6.06598 530.692 -35.976 496.068 -35.976C461.443 -35.976 433.375 -6.06598 433.375 30.8304C433.375 67.7267 461.443 97.6371 496.068 97.6371Z" stroke="white" stroke-opacity="0.2" stroke-width="2.8438" stroke-miterlimit="10"/>
<path opacity="0.8" d="M496.068 83.8486C523.545 83.8486 545.821 60.1115 545.821 30.8304C545.821 1.54931 523.545 -22.188 496.068 -22.188C468.59 -22.188 446.314 1.54931 446.314 30.8304C446.314 60.1115 468.59 83.8486 496.068 83.8486Z" stroke="white" stroke-opacity="0.2" stroke-width="3" stroke-miterlimit="10"/>
</g>
<g opacity="0.81">
<g opacity="0.81">
<path opacity="0.81" d="M1328.93 359.621C1479.81 359.621 1602.12 229.284 1602.12 68.5064C1602.12 -92.272 1479.81 -222.608 1328.93 -222.608C1178.05 -222.608 1055.74 -92.272 1055.74 68.5064C1055.74 229.284 1178.05 359.621 1328.93 359.621Z" stroke="white" stroke-opacity="0.2" stroke-width="1.0531" stroke-linecap="round" stroke-linejoin="round"/>
</g>
<g opacity="0.81">
<path opacity="0.81" d="M1328.93 348.551C1474.07 348.551 1591.73 223.171 1591.73 68.5064C1591.73 -86.158 1474.07 -211.538 1328.93 -211.538C1183.79 -211.538 1066.13 -86.158 1066.13 68.5064C1066.13 223.171 1183.79 348.551 1328.93 348.551Z" stroke="white" stroke-opacity="0.2" stroke-width="1.1458" stroke-linecap="round" stroke-linejoin="round"/>
</g>
<g opacity="0.81">
<path opacity="0.81" d="M1328.93 337.481C1468.33 337.481 1581.34 217.057 1581.34 68.5064C1581.34 -80.044 1468.33 -200.468 1328.93 -200.468C1189.53 -200.468 1076.52 -80.044 1076.52 68.5064C1076.52 217.057 1189.53 337.481 1328.93 337.481Z" stroke="white" stroke-opacity="0.2" stroke-width="1.2385" stroke-linecap="round" stroke-linejoin="round"/>
</g>
<g opacity="0.81">
<path opacity="0.81" d="M1328.93 326.217C1462.5 326.217 1570.77 210.836 1570.77 68.5064C1570.77 -73.823 1462.5 -189.205 1328.93 -189.205C1195.37 -189.205 1087.09 -73.823 1087.09 68.5064C1087.09 210.836 1195.37 326.217 1328.93 326.217Z" stroke="white" stroke-opacity="0.2" stroke-width="1.3312" stroke-linecap="round" stroke-linejoin="round"/>
</g>
<g opacity="0.81">
<path opacity="0.81" d="M1328.93 315.148C1456.76 315.148 1560.38 204.723 1560.38 68.5064C1560.38 -67.71 1456.76 -178.135 1328.93 -178.135C1201.1 -178.135 1097.48 -67.71 1097.48 68.5064C1097.48 204.723 1201.1 315.148 1328.93 315.148Z" stroke="white" stroke-opacity="0.2" stroke-width="1.4239" stroke-linecap="round" stroke-linejoin="round"/>
</g>
<g opacity="0.81">
<path opacity="0.81" d="M1328.93 304.078C1451.02 304.078 1549.99 198.609 1549.99 68.5063C1549.99 -61.596 1451.02 -167.065 1328.93 -167.065C1206.84 -167.065 1107.87 -61.596 1107.87 68.5063C1107.87 198.609 1206.84 304.078 1328.93 304.078Z" stroke="white" stroke-opacity="0.2" stroke-width="1.5166" stroke-linecap="round" stroke-linejoin="round"/>
</g>
<g opacity="0.81">
<path opacity="0.81" d="M1328.93 293.008C1445.28 293.008 1539.61 192.495 1539.61 68.5063C1539.61 -55.483 1445.28 -155.995 1328.93 -155.995C1212.58 -155.995 1118.25 -55.483 1118.25 68.5063C1118.25 192.495 1212.58 293.008 1328.93 293.008Z" stroke="white" stroke-opacity="0.2" stroke-width="1.6093" stroke-linecap="round" stroke-linejoin="round"/>
</g>
<g opacity="0.81">
<path opacity="0.81" d="M1328.93 281.744C1439.45 281.744 1529.04 186.274 1529.04 68.5064C1529.04 -49.262 1439.45 -144.731 1328.93 -144.731C1218.42 -144.731 1128.83 -49.262 1128.83 68.5064C1128.83 186.274 1218.42 281.744 1328.93 281.744Z" stroke="white" stroke-opacity="0.2" stroke-width="1.702" stroke-linecap="round" stroke-linejoin="round"/>
</g>
<g opacity="0.81">
<path opacity="0.81" d="M1328.93 270.674C1433.71 270.674 1518.65 180.161 1518.65 68.5063C1518.65 -43.148 1433.71 -133.662 1328.93 -133.662C1224.15 -133.662 1139.21 -43.148 1139.21 68.5063C1139.21 180.161 1224.15 270.674 1328.93 270.674Z" stroke="white" stroke-opacity="0.2" stroke-width="1.7948" stroke-linecap="round" stroke-linejoin="round"/>
</g>
<g opacity="0.81">
<path opacity="0.81" d="M1328.93 259.605C1427.97 259.605 1508.26 174.047 1508.26 68.5063C1508.26 -37.034 1427.97 -122.592 1328.93 -122.592C1229.89 -122.592 1149.6 -37.034 1149.6 68.5063C1149.6 174.047 1229.89 259.605 1328.93 259.605Z" stroke="white" stroke-opacity="0.2" stroke-width="1.8875" stroke-linecap="round" stroke-linejoin="round"/>
</g>
<g opacity="0.81">
<path opacity="0.81" d="M1328.93 248.535C1422.23 248.535 1497.87 167.933 1497.87 68.5063C1497.87 -30.921 1422.23 -111.522 1328.93 -111.522C1235.63 -111.522 1159.99 -30.921 1159.99 68.5063C1159.99 167.933 1235.63 248.535 1328.93 248.535Z" stroke="white" stroke-opacity="0.2" stroke-width="1.9802" stroke-linecap="round" stroke-linejoin="round"/>
</g>
<g opacity="0.81">
<path opacity="0.81" d="M1328.93 237.271C1416.4 237.271 1487.3 161.713 1487.3 68.5063C1487.3 -24.7 1416.4 -100.258 1328.93 -100.258C1241.46 -100.258 1170.56 -24.7 1170.56 68.5063C1170.56 161.713 1241.46 237.271 1328.93 237.271Z" stroke="white" stroke-opacity="0.2" stroke-width="2.0729" stroke-linecap="round" stroke-linejoin="round"/>
</g>
<g opacity="0.81">
<path opacity="0.81" d="M1328.93 226.201C1410.66 226.201 1476.91 155.599 1476.91 68.5064C1476.91 -18.586 1410.66 -89.189 1328.93 -89.189C1247.2 -89.189 1180.95 -18.586 1180.95 68.5064C1180.95 155.599 1247.2 226.201 1328.93 226.201Z" stroke="white" stroke-opacity="0.2" stroke-width="2.1656" stroke-linecap="round" stroke-linejoin="round"/>
</g>
<g opacity="0.81">
<path opacity="0.81" d="M1328.93 215.132C1404.92 215.132 1466.53 149.485 1466.53 68.5063C1466.53 -12.4726 1404.92 -78.119 1328.93 -78.119C1252.94 -78.119 1191.34 -12.4726 1191.34 68.5063C1191.34 149.485 1252.94 215.132 1328.93 215.132Z" stroke="white" stroke-opacity="0.2" stroke-width="2.2583" stroke-linecap="round" stroke-linejoin="round"/>
</g>
<g opacity="0.81">
<path opacity="0.81" d="M1328.93 203.868C1399.09 203.868 1455.96 143.264 1455.96 68.5064C1455.96 -6.25169 1399.09 -66.855 1328.93 -66.855C1258.78 -66.855 1201.91 -6.25169 1201.91 68.5064C1201.91 143.264 1258.78 203.868 1328.93 203.868Z" stroke="white" stroke-opacity="0.2" stroke-width="2.351" stroke-linecap="round" stroke-linejoin="round"/>
</g>
<g opacity="0.81">
<path opacity="0.81" d="M1328.93 192.798C1393.35 192.798 1445.57 137.151 1445.57 68.5064C1445.57 -0.137993 1393.35 -55.785 1328.93 -55.785C1264.51 -55.785 1212.29 -0.137993 1212.29 68.5064C1212.29 137.151 1264.51 192.798 1328.93 192.798Z" stroke="white" stroke-opacity="0.2" stroke-width="2.4437" stroke-linecap="round" stroke-linejoin="round"/>
</g>
<g opacity="0.81">
<path opacity="0.81" d="M1328.93 181.728C1387.61 181.728 1435.18 131.037 1435.18 68.5063C1435.18 5.97561 1387.61 -44.716 1328.93 -44.716C1270.25 -44.716 1222.68 5.97561 1222.68 68.5063C1222.68 131.037 1270.25 181.728 1328.93 181.728Z" stroke="white" stroke-opacity="0.2" stroke-width="2.5364" stroke-linecap="round" stroke-linejoin="round"/>
</g>
<g opacity="0.81">
<path opacity="0.81" d="M1328.93 170.659C1381.87 170.659 1424.79 124.923 1424.79 68.5063C1424.79 12.0892 1381.87 -33.646 1328.93 -33.646C1275.99 -33.646 1233.07 12.0892 1233.07 68.5063C1233.07 124.923 1275.99 170.659 1328.93 170.659Z" stroke="white" stroke-opacity="0.2" stroke-width="2.6292" stroke-linecap="round" stroke-linejoin="round"/>
</g>
<g opacity="0.81">
<path opacity="0.81" d="M1328.93 159.395C1376.04 159.395 1414.22 118.703 1414.22 68.5063C1414.22 18.3101 1376.04 -22.382 1328.93 -22.382C1281.83 -22.382 1243.64 18.3101 1243.64 68.5063C1243.64 118.703 1281.83 159.395 1328.93 159.395Z" stroke="white" stroke-opacity="0.2" stroke-width="2.7219" stroke-linecap="round" stroke-linejoin="round"/>
</g>
<g opacity="0.81">
<path opacity="0.81" d="M1328.93 148.325C1370.3 148.325 1403.83 112.589 1403.83 68.5063C1403.83 24.4237 1370.3 -11.3122 1328.93 -11.3122C1287.56 -11.3122 1254.03 24.4237 1254.03 68.5063C1254.03 112.589 1287.56 148.325 1328.93 148.325Z" stroke="white" stroke-opacity="0.2" stroke-width="2.8146" stroke-linecap="round" stroke-linejoin="round"/>
</g>
<g opacity="0.81">
<path opacity="0.81" d="M1328.93 137.255C1364.56 137.255 1393.45 106.475 1393.45 68.5063C1393.45 30.5374 1364.56 -0.242493 1328.93 -0.242493C1293.3 -0.242493 1264.42 30.5374 1264.42 68.5063C1264.42 106.475 1293.3 137.255 1328.93 137.255Z" stroke="white" stroke-opacity="0.2" stroke-width="2.9073" stroke-linecap="round" stroke-linejoin="round"/>
</g>
<g opacity="0.81">
<path opacity="0.81" d="M1328.93 126.185C1358.82 126.185 1383.06 100.362 1383.06 68.5063C1383.06 36.651 1358.82 10.8272 1328.93 10.8272C1299.04 10.8272 1274.8 36.651 1274.8 68.5063C1274.8 100.362 1299.04 126.185 1328.93 126.185Z" stroke="white" stroke-opacity="0.2" stroke-width="3" stroke-linecap="round" stroke-linejoin="round"/>
</g>
</g>
</g>
<defs>
<clipPath id="clip0_471_1372">
<rect width="1435" height="1023" fill="white"/>
</clipPath>
</defs>
</svg>
